HIERARCHY
ROOT Hips
{
	OFFSET 0.00000 0.00000 0.00000
	CHANNELS 6 Xposition Yposition Zposition Zrotation Yrotation Xrotation 
	JOINT LHipJoint
	{
		OFFSET 0 0 0
		CHANNELS 3 Zrotation Yrotation Xrotation
		JOINT LeftHip
		{
			OFFSET 1.28858 -1.83292 1.03970
			CHANNELS 3 Zrotation Yrotation Xrotation
			JOINT LeftKnee
			{
				OFFSET 2.47846 -6.80952 0.00000
				CHANNELS 3 Zrotation Yrotation Xrotation
				JOINT LeftAnkle
				{
					OFFSET 2.75274 -7.56311 0.00000
					CHANNELS 3 Zrotation Yrotation Xrotation
					JOINT LeftToe
					{
						OFFSET 0.12848 -0.35301 1.68223
						CHANNELS 3 Zrotation Yrotation Xrotation
						End Site
						{
							OFFSET 0.00000 -0.00000 0.87311
						}
					}
				}
			}
		}
	}
	JOINT RHipJoint
	{
		OFFSET 0 0 0
		CHANNELS 3 Zrotation Yrotation Xrotation
		JOINT RightHip
		{
			OFFSET -1.31183 -1.83292 1.03970
			CHANNELS 3 Zrotation Yrotation Xrotation
			JOINT RightKnee
			{
				OFFSET -2.44740 -6.72417 0.00000
				CHANNELS 3 Zrotation Yrotation Xrotation
				JOINT RightAnkle
				{
					OFFSET -2.67343 -7.34519 0.00000
					CHANNELS 3 Zrotation Yrotation Xrotation
					JOINT RightToe
					{
						OFFSET -0.16914 -0.46471 1.77626
						CHANNELS 3 Zrotation Yrotation Xrotation
						End Site
						{
							OFFSET -0.00000 -0.00000 0.92777
						}
					}
				}
			}
		}
	}
	JOINT lowerback
	{
		OFFSET 0 0 0
		CHANNELS 3 Zrotation Yrotation Xrotation
		JOINT Chest
		{
			OFFSET 0.01249 2.14252 0.03842
			CHANNELS 3 Zrotation Yrotation Xrotation
			JOINT Chest2
			{
				OFFSET -0.02957 2.14199 -0.03751
				CHANNELS 3 Zrotation Yrotation Xrotation
				JOINT lowerneck
				{
					OFFSET 0 0 0
					CHANNELS 3 Zrotation Yrotation Xrotation
					JOINT Neck
					{
						OFFSET -0.01678 1.65709 -0.05476
						CHANNELS 3 Zrotation Yrotation Xrotation
						JOINT Head
						{
							OFFSET 0.07912 1.58331 -0.11843
							CHANNELS 3 Zrotation Yrotation Xrotation
							End Site
							{
								OFFSET 0.03298 1.73940 -0.04271
							}
						}
					}
				}
				JOINT LeftCollar
				{
					OFFSET 0 0 0
					CHANNELS 3 Zrotation Yrotation Xrotation
					JOINT LeftShoulder
					{
						OFFSET 3.39556 1.16496 0.08673
CHANNELS 3 Zrotation Xrotation Yrotation
						JOINT LeftElbow
						{
OFFSET 0 -5.239100 -0.000000
CHANNELS 3 Zrotation Xrotation Yrotation
							JOINT LeftWrist
							{
OFFSET 0 -3.314670 0.000000
CHANNELS 3 Zrotation Xrotation Yrotation
								JOINT lhand
								{
									OFFSET 0 0 0
CHANNELS 3 Zrotation Xrotation Yrotation
									JOINT LFingers
									{
OFFSET 0 -0.965900 0.000000
CHANNELS 3 Zrotation Xrotation Yrotation
										End Site
										{
OFFSET 0 -0.778730 0.000000
										}
									}
								}
								JOINT LThumb
								{
OFFSET 0 0.000000 0.000000
CHANNELS 3 Zrotation Xrotation Yrotation
									End Site
									{
OFFSET 0 -0.790620 0.790620
									}
								}
							}
						}
					}
				}
				JOINT RightCollar
				{
					OFFSET 0 0 0
					CHANNELS 3 Zrotation Yrotation Xrotation
					JOINT RightShoulder
					{
						OFFSET -3.27193 1.31331 0.33940
CHANNELS 3 Zrotation Xrotation Yrotation
						JOINT RightElbow
						{
OFFSET 0 -5.302520 0.000000
CHANNELS 3 Zrotation Xrotation Yrotation
							JOINT RightWrist
							{
OFFSET 0 -3.678750 0.000000
CHANNELS 3 Zrotation Xrotation Yrotation
								JOINT rhand
								{
									OFFSET 0 0 0
CHANNELS 3 Zrotation Xrotation Yrotation
									JOINT RFingers
									{
OFFSET 0 -0.594810 0.000000
CHANNELS 3 Zrotation Xrotation Yrotation
										End Site
										{
OFFSET 0 -0.479550 0.000000
										}
									}
								}
								JOINT RThumb
								{
OFFSET 0 0.000000 0.000000
CHANNELS 3 Zrotation Xrotation Yrotation
									End Site
									{
OFFSET 0 -0.486870 0.486870
									}
								}
							}
						}
					}
				}
			}
		}
	}
}
MOTION
Frames: 6
Frame Time: 0.008333333333333333
11.083228 18.888346 11.362450 0.823451 -6.042380 23.838416 0.000000 0.000000 0.000000 4.939713 -16.820877 -78.540879 13.998205 19.112786 72.198467 0.232083 -10.263732 -10.487221 0.020761 0.926185 2.545709 0.000000 0.000000 0.000000 -1.348912 12.458566 -77.853045 -14.485593 -19.254035 73.681645 -1.056332 -1.350018 -19.947075 -0.217155 -2.996653 8.269560 1.802411 1.149950 21.120600 -0.331712 1.815967 5.206246 -1.849778 0.845986 -6.057783 -0.278676 -1.597747 2.249521 3.167944 -1.569239 -27.352353 1.263104 -1.063600 -8.858276 0.000000 0.000000 0.000000 3.896802 63.240770 -22.159709 0.843684 -1.460931 0.010738 -4.475721 -2.249698 11.205078 0.000000 0.000000 0.000000 -7.125000 0.000000 0.000000 -21.820746 19.078599 -14.580527 0.000000 0.000000 0.000000 19.143332 68.031651 -80.344721 -5.215140 -8.946964 -0.408324 0.228365 34.016721 41.869840 0.000000 0.000000 0.000000 7.125000 0.000000 0.000000 48.066273 65.605518 -26.556575
11.099947 18.544621 11.257151 0.839213 -5.988852 24.133593 0.000000 0.000000 0.000000 5.414462 -16.729541 -80.364866 14.612626 19.288437 74.066317 0.356818 -10.554747 -12.092170 0.014586 0.779138 2.141345 0.000000 0.000000 0.000000 -1.660840 12.263428 -79.386938 -14.924406 -19.370567 75.008892 -1.187642 -1.410449 -21.142537 -0.320241 -3.630697 10.040648 1.930766 1.085209 21.332383 -0.260209 1.759517 5.675614 -1.828452 0.826029 -5.659502 -0.461937 -1.659120 1.656635 3.467742 -1.601317 -27.831645 1.401414 -1.093193 -8.911898 0.000000 0.000000 0.000000 0.969778 66.126456 -20.283709 0.774891 -1.341860 0.009052 -5.417838 -4.673172 11.100289 0.000000 0.000000 0.000000 -7.125000 0.000000 0.000000 -22.450202 19.171195 -15.024794 0.000000 0.000000 0.000000 25.230079 69.681399 -94.299522 -5.265390 -9.031473 -0.416122 0.651061 35.295996 41.201028 0.000000 0.000000 0.000000 7.125000 0.000000 0.000000 47.383177 65.031366 -25.500452
11.111775 18.204972 11.174755 0.873991 -5.856866 24.390106 0.000000 0.000000 0.000000 5.652800 -16.578025 -81.910522 15.249139 19.449487 75.985585 0.493244 -10.951918 -13.703601 0.022498 0.966745 2.657320 0.000000 0.000000 0.000000 -1.734960 11.937483 -80.368120 -15.177804 -19.433062 75.771609 -1.332079 -0.848692 -22.138699 -0.467617 -4.382617 12.156133 1.977719 0.973901 21.739327 -0.137902 1.638608 5.862832 -1.700159 0.767660 -5.674601 -0.458765 -1.743081 1.027619 3.498850 -1.716474 -28.201657 1.419832 -1.154129 -8.924728 0.000000 0.000000 0.000000 -2.076828 68.302773 -18.271350 0.659509 -1.142023 0.006565 -6.598482 -6.373863 11.047054 0.000000 0.000000 0.000000 -7.125000 0.000000 0.000000 -23.223517 19.208884 -15.618933 0.000000 0.000000 0.000000 30.613580 70.890952 -104.943696 -5.388656 -9.238775 -0.435713 -0.075774 35.234391 40.921661 0.000000 0.000000 0.000000 7.125000 0.000000 0.000000 46.266459 65.048607 -24.795177
11.115900 17.875093 11.110488 0.916023 -5.713139 24.556458 0.000000 0.000000 0.000000 5.741753 -16.308958 -83.281211 15.860405 19.583154 77.815043 0.633198 -11.161956 -15.141678 0.037248 1.244363 3.421459 0.000000 0.000000 0.000000 -1.703259 11.604960 -81.015730 -15.365728 -19.477002 76.335842 -1.502368 -0.046164 -23.208489 -0.646279 -5.137536 14.302256 1.920697 0.833166 22.312400 -0.003488 1.465973 5.871886 -1.490834 0.680004 -5.972312 -0.311442 -1.841139 0.523131 3.445777 -1.860705 -28.654055 1.389784 -1.237922 -8.993467 0.000000 0.000000 0.000000 -4.653323 69.383120 -16.521344 0.467297 -0.809338 0.003351 -7.802965 -6.792218 11.071133 0.000000 0.000000 0.000000 -7.125000 0.000000 0.000000 -23.993279 19.168272 -16.268077 0.000000 0.000000 0.000000 34.040785 71.518645 -110.400789 -5.474082 -9.382158 -0.449516 -1.155807 34.636431 40.683443 0.000000 0.000000 0.000000 7.125000 0.000000 0.000000 44.876905 65.192185 -24.053176
11.113277 17.558527 11.056742 0.938799 -5.620225 24.583009 0.000000 0.000000 0.000000 5.756254 -15.898322 -84.518711 16.432198 19.691916 79.516777 0.722999 -11.361097 -16.030735 0.045112 1.370472 3.768742 0.000000 0.000000 0.000000 -1.649773 11.343368 -81.578246 -15.605572 -19.530536 77.054249 -1.682977 0.688623 -24.338683 -0.821347 -5.782267 16.154140 1.811934 0.696221 22.870699 0.099848 1.283795 5.916069 -1.278926 0.589715 -6.223059 -0.165445 -1.940669 0.283219 3.501096 -1.976438 -29.393845 1.404696 -1.323236 -9.214792 0.000000 0.000000 0.000000 -6.125761 69.362026 -15.520975 0.373455 -0.646704 0.002114 -8.759941 -6.023285 11.177222 0.000000 0.000000 0.000000 -7.125000 0.000000 0.000000 -24.585354 19.051774 -16.829002 0.000000 0.000000 0.000000 34.701666 71.425612 -110.920384 -5.477246 -9.387482 -0.450057 -1.245750 34.258442 40.135248 0.000000 0.000000 0.000000 7.125000 0.000000 0.000000 43.958540 64.829214 -23.113021
11.107837 17.261875 11.016045 0.968155 -5.660329 24.361203 0.000000 0.000000 0.000000 5.655246 -15.387709 -85.517970 16.982127 19.779433 81.144851 0.769951 -11.534974 -16.495828 0.047179 1.401656 3.854680 0.000000 0.000000 0.000000 -1.624033 11.127839 -82.199525 -15.995067 -19.610423 78.216718 -1.853931 1.103367 -25.442053 -0.955994 -6.225133 17.439346 1.669953 0.588708 23.382466 0.121639 1.121900 6.040414 -1.136879 0.511754 -6.357648 -0.161528 -1.994065 0.657820 3.688815 -1.992235 -30.551088 1.502365 -1.365150 -9.706135 0.000000 0.000000 0.000000 -5.839183 68.087321 -15.786905 0.415614 -0.719787 0.002608 -8.851622 -4.508658 11.658230 0.000000 0.000000 0.000000 -7.125000 0.000000 0.000000 -24.565088 18.607257 -17.084402 0.000000 0.000000 0.000000 32.115541 70.397784 -106.608025 -5.433041 -9.313309 -0.442860 0.666552 33.855749 39.046787 0.000000 0.000000 0.000000 7.125000 0.000000 0.000000 44.216820 63.520413 -21.953219
